<?xml version="1.0" encoding="UTF-8"?>
<svg version="1.1" xmlns="http://www.w3.org/2000/svg" width="1104" height="1104">
<path d="M0 0 C0.99311188 0.02132996 1.98622375 0.04265991 3.00942993 0.06463623 C5.847631 0.12794708 8.68551273 0.19883609 11.5234375 0.2734375 C12.79472252 0.30328735 12.79472252 0.30328735 14.09169006 0.33374023 C18.06088072 0.45009435 21.73984894 0.73799709 25.625 1.625 C26.9518766 1.7587853 28.28183152 1.86563269 29.61328125 1.94140625 C30.31904297 1.98330078 31.02480469 2.02519531 31.75195312 2.06835938 C32.47318359 2.10767578 33.19441406 2.14699219 33.9375 2.1875 C34.67806641 2.23068359 35.41863281 2.27386719 36.18164062 2.31835938 C37.99591464 2.42370432 39.8104355 2.52478316 41.625 2.625 C41.625 3.285 41.625 3.945 41.625 4.625 C42.6871875 4.59019531 43.749375 4.55539063 44.84375 4.51953125 C57.89653999 4.22140244 57.89653999 4.22140244 63.5078125 6.90234375 C66.53168797 7.93447837 69.4410832 7.96681386 72.625 8.125 C77.50181989 8.37376446 81.18664928 8.94907555 85.609375 10.9296875 C89.10618429 12.13595117 92.73136069 12.2019837 96.40234375 12.4140625 C98.625 12.625 98.625 12.625 99.625 13.625 C101.3575 13.8725 101.3575 13.8725 103.125 14.125 C106.625 14.625 106.625 14.625 107.625 15.625 C108.635625 15.74875 109.64625 15.8725 110.6875 16 C114.19810938 16.55723958 117.10492734 17.49295549 120.390625 18.8046875 C122.93794253 19.73989149 125.50057375 20.43626935 128.125 21.125 C133.59978162 22.5733148 138.76665058 24.41351415 143.984375 26.625 C146.79854441 27.69072096 149.56835705 28.38860285 152.5 29.0625 C157.13571957 30.18750999 161.25993454 31.68497091 165.625 33.625 C168.93823573 34.69678526 172.27510718 35.67462799 175.625 36.625 C175.625 37.285 175.625 37.945 175.625 38.625 C178.595 39.285 181.565 39.945 184.625 40.625 C184.625 41.285 184.625 41.945 184.625 42.625 C185.945 42.625 187.265 42.625 188.625 42.625 C188.625 43.285 188.625 43.945 188.625 44.625 C190.605 44.625 192.585 44.625 194.625 44.625 C194.625 45.285 194.625 45.945 194.625 46.625 C197.595 47.285 200.565 47.945 203.625 48.625 C203.625 49.285 203.625 49.945 203.625 50.625 C204.2025 50.769375 204.78 50.91375 205.375 51.0625 C207.45833333 51.58333333 209.54166667 52.10416667 211.625 52.625 C211.625 53.285 211.625 53.945 211.625 54.625 C212.615 54.625 213.605 54.625 214.625 54.625 C214.625 55.285 214.625 55.945 214.625 56.625 C215.945 56.625 217.265 56.625 218.625 56.625 C218.625 57.285 218.625 57.945 218.625 58.625 C219.2025 58.769375 219.78 58.91375 220.375 59.0625 C222.45833333 59.58333333 224.54166667 60.10416667 226.625 60.625 C226.625 61.285 226.625 61.945 226.625 62.625 C227.2025 62.769375 227.78 62.91375 228.375 63.0625 C230.45833333 63.58333333 232.54166667 64.10416667 234.625 64.625 C234.625 65.285 234.625 65.945 234.625 66.625 C235.285 66.625 235.945 66.625 236.625 66.625 C236.625 67.285 236.625 67.945 236.625 68.625 C237.945 68.625 239.265 68.625 240.625 68.625 C240.625 69.285 240.625 69.945 240.625 70.625 C241.285 70.625 241.945 70.625 242.625 70.625 C242.625 71.285 242.625 71.945 242.625 72.625 C243.945 72.625 245.265 72.625 246.625 72.625 C246.625 73.285 246.625 73.945 246.625 74.625 C247.615 74.625 248.605 74.625 249.625 74.625 C249.625 75.285 249.625 75.945 249.625 76.625 C250.5221875 76.8415625 250.5221875 76.8415625 251.4375 77.0625 C253.18650404 77.5122439 254.91177023 78.05392341 256.625 78.625 C256.625 79.285 256.625 79.945 256.625 80.625 C257.945 80.625 259.265 80.625 260.625 80.625 C260.625 81.285 260.625 81.945 260.625 82.625 C261.285 82.625 261.945 82.625 262.625 82.625 C262.625 83.285 262.625 83.945 262.625 84.625 C263.615 84.625 264.605 84.625 265.625 84.625 C265.625 85.285 265.625 85.945 265.625 86.625 C266.615 86.625 267.605 86.625 268.625 86.625 C268.625 87.285 268.625 87.945 268.625 88.625 C269.181875 88.728125 269.73875 88.83125 270.3125 88.9375 C273.1019101 89.76678408 275.2389064 90.96799056 277.625 92.625 C277.625 93.285 277.625 93.945 277.625 94.625 C278.615 94.625 279.605 94.625 280.625 94.625 C280.625 95.285 280.625 95.945 280.625 96.625 C281.553125 96.8415625 281.553125 96.8415625 282.5 97.0625 C284.625 97.625 284.625 97.625 286.625 98.625 C286.625 99.285 286.625 99.945 286.625 100.625 C287.615 100.625 288.605 100.625 289.625 100.625 C289.955 101.945 290.285 103.265 290.625 104.625 C291.553125 104.8415625 291.553125 104.8415625 292.5 105.0625 C294.625 105.625 294.625 105.625 296.625 106.625 C296.625 107.285 296.625 107.945 296.625 108.625 C297.388125 108.91375 298.15125 109.2025 298.9375 109.5 C301.625 110.625 301.625 110.625 304.625 112.625 C304.625 113.285 304.625 113.945 304.625 114.625 C305.285 114.625 305.945 114.625 306.625 114.625 C306.625 115.285 306.625 115.945 306.625 116.625 C307.285 116.625 307.945 116.625 308.625 116.625 C308.625 117.285 308.625 117.945 308.625 118.625 C309.285 118.625 309.945 118.625 310.625 118.625 C310.625 119.285 310.625 119.945 310.625 120.625 C311.285 120.625 311.945 120.625 312.625 120.625 C312.625 121.285 312.625 121.945 312.625 122.625 C313.285 122.625 313.945 122.625 314.625 122.625 C314.625 123.285 314.625 123.945 314.625 124.625 C315.2025 124.91375 315.78 125.2025 316.375 125.5 C317.1175 125.87125 317.86 126.2425 318.625 126.625 C319.26050781 126.89957031 319.89601563 127.17414063 320.55078125 127.45703125 C322.96199652 128.81475887 324.30176875 130.3107969 326.0625 132.4375 C328.06792293 134.81065506 330.04939167 137.04939167 332.25 139.25 C334.90088366 141.90088366 337.22574418 144.74589302 339.625 147.625 C340.553125 148.5325 341.48125 149.44 342.4375 150.375 C344.625 152.625 344.625 152.625 344.625 154.625 C345.285 154.625 345.945 154.625 346.625 154.625 C346.625 155.285 346.625 155.945 346.625 156.625 C347.285 156.625 347.945 156.625 348.625 156.625 C348.625 157.285 348.625 157.945 348.625 158.625 C349.285 158.625 349.945 158.625 350.625 158.625 C350.625 159.285 350.625 159.945 350.625 160.625 C351.285 160.625 351.945 160.625 352.625 160.625 C352.625 161.285 352.625 161.945 352.625 162.625 C353.285 162.625 353.945 162.625 354.625 162.625 C354.625 163.285 354.625 163.945 354.625 164.625 C355.285 164.625 355.945 164.625 356.625 164.625 C357.285 166.275 357.945 167.925 358.625 169.625 C359.285 169.625 359.945 169.625 360.625 169.625 C360.625 170.615 360.625 171.605 360.625 172.625 C361.285 172.625 361.945 172.625 362.625 172.625 C362.625 173.285 362.625 173.945 362.625 174.625 C363.285 174.625 363.945 174.625 364.625 174.625 C364.625 175.285 364.625 175.945 364.625 176.625 C365.285 176.625 365.945 176.625 366.625 176.625 C366.625 177.615 366.625 178.605 366.625 179.625 C367.285 179.625 367.945 179.625 368.625 179.625 C368.625 180.615 368.625 181.605 368.625 182.625 C369.285 182.625 369.945 182.625 370.625 182.625 C374.625 188.03676471 374.625 188.03676471 374.625 190.625 C375.285 190.625 375.945 190.625 376.625 190.625 C376.625 191.285 376.625 191.945 376.625 192.625 C377.285 192.625 377.945 192.625 378.625 192.625 C380.625 195.625 380.625 195.625 380.625 198.625 C381.285 198.625 381.945 198.625 382.625 198.625 C384.625 201.625 384.625 201.625 384.625 204.625 C385.285 204.625 385.945 204.625 386.625 204.625 C388.625 207.625 388.625 207.625 388.625 210.625 C389.285 210.625 389.945 210.625 390.625 210.625 C390.625 211.615 390.625 212.605 390.625 213.625 C391.285 213.625 391.945 213.625 392.625 213.625 C394.0856285 216.27238916 394.625 217.51948334 394.625 220.625 C395.285 220.625 395.945 220.625 396.625 220.625 C398.0856285 223.27238916 398.625 224.51948334 398.625 227.625 C399.285 227.625 399.945 227.625 400.625 227.625 C400.625 228.615 400.625 229.605 400.625 230.625 C401.285 230.625 401.945 230.625 402.625 230.625 C402.625 232.275 402.625 233.925 402.625 235.625 C403.285 235.625 403.945 235.625 404.625 235.625 C404.625 236.615 404.625 237.605 404.625 238.625 C405.285 238.625 405.945 238.625 406.625 238.625 C407.88164978 241.53100261 408.625 243.42104584 408.625 246.625 C409.285 246.625 409.945 246.625 410.625 246.625 C410.625 247.945 410.625 249.265 410.625 250.625 C411.285 250.625 411.945 250.625 412.625 250.625 C412.625 251.945 412.625 253.265 412.625 254.625 C413.285 254.625 413.945 254.625 414.625 254.625 C414.82996094 255.19089844 415.03492188 255.75679688 415.24609375 256.33984375 C415.51550781 257.07332031 415.78492188 257.80679687 416.0625 258.5625 C416.46275391 259.65884766 416.46275391 259.65884766 416.87109375 260.77734375 C417.47886948 262.60805678 417.47886948 262.60805678 418.625 263.625 C418.66563832 265.29117115 418.667721 266.95888095 418.625 268.625 C419.285 268.625 419.945 268.625 420.625 268.625 C420.80675781 269.27726562 420.98851562 269.92953125 421.17578125 270.6015625 C422.32017713 274.58053894 423.42723367 278.23679201 425.3125 281.9375 C426.7003328 284.77925287 426.8999245 286.50918897 426.625 289.625 C427.285 289.625 427.945 289.625 428.625 289.625 C430.38247614 294.12853262 430.81794408 297.80139811 430.625 302.625 C431.285 302.625 431.945 302.625 432.625 302.625 C432.769375 303.759375 432.91375 304.89375 433.0625 306.0625 C433.23671478 309.43277201 433.23671478 309.43277201 434.625 310.625 C434.95833333 312.95833333 435.29166667 315.29166667 435.625 317.625 C435.955 317.955 436.285 318.285 436.625 318.625 C438.15301064 324.53410365 438.90794932 330.51936678 439.37890625 336.59375 C439.51731607 338.68995754 439.51731607 338.68995754 440.625 340.625 C440.93369938 342.92309536 441.13383648 345.22220129 441.34375 347.53125 C441.517155 349.67943933 441.517155 349.67943933 442.625 351.625 C442.72320573 354.208134 442.76130775 356.76427849 442.75439453 359.34765625 C442.75614685 360.1445285 442.75789917 360.94140076 442.75970459 361.76242065 C442.76411628 364.40413573 442.7611875 367.0457842 442.7578125 369.6875 C442.75848574 371.51831068 442.75945593 373.34912127 442.76071167 375.17993164 C442.76218772 379.02002817 442.76003706 382.86010147 442.75537109 386.70019531 C442.74967386 391.63013051 442.75295336 396.56001126 442.75894356 401.48994446 C442.76255167 405.2713665 442.76140943 409.05277557 442.75881577 412.834198 C442.75814719 414.65233364 442.75897251 416.47047045 442.76129532 418.28860474 C442.76382592 420.82654962 442.75997545 423.36440552 442.75439453 425.90234375 C442.75641876 426.65877167 442.75844299 427.41519958 442.76052856 428.19454956 C442.7392643 433.39647139 442.7392643 433.39647139 441.625 435.625 C441.42407217 437.12079604 441.26163934 438.62196724 441.125 440.125 C440.73611111 444.40277778 440.73611111 444.40277778 439.625 446.625 C439.44373784 448.12113214 439.30399619 449.62243686 439.1875 451.125 C437.8813101 465.3686899 437.8813101 465.3686899 435.625 467.625 C435.41895915 468.95281878 435.2587041 470.28795895 435.125 471.625 C434.73611111 475.51388889 434.73611111 475.51388889 433.625 476.625 C433.50125 477.635625 433.3775 478.64625 433.25 479.6875 C432.6632313 483.38414278 431.69636662 486.31740271 430.32421875 489.7578125 C429.48069824 492.01034213 428.99587444 494.2514036 428.625 496.625 C427.965 496.625 427.305 496.625 426.625 496.625 C426.625 498.605 426.625 500.585 426.625 502.625 C425.965 502.625 425.305 502.625 424.625 502.625 C424.625 504.605 424.625 506.585 424.625 508.625 C423.965 508.625 423.305 508.625 422.625 508.625 C422.7178125 509.7078125 422.7178125 509.7078125 422.8125 510.8125 C422.625 513.625 422.625 513.625 421.26171875 515.87890625 C419.42253469 518.96469717 418.37838544 521.96712452 417.25 525.375 C415.47140155 530.51676642 413.48789203 535.1264984 410.640625 539.7578125 C409.58275687 541.70266238 409.06687551 543.46365241 408.625 545.625 C407.965 545.625 407.305 545.625 406.625 545.625 C406.480625 546.388125 406.33625 547.15125 406.1875 547.9375 C405.625 550.625 405.625 550.625 404.625 553.625 C403.965 553.625 403.305 553.625 402.625 553.625 C402.480625 554.223125 402.33625 554.82125 402.1875 555.4375 C401.7377561 557.18650404 401.19607659 558.91177023 400.625 560.625 C399.965 560.625 399.305 560.625 398.625 560.625 C398.625 562.275 398.625 563.925 398.625 565.625 C397.965 565.625 397.305 565.625 396.625 565.625 C396.625 566.615 396.625 567.605 396.625 568.625 C395.965 568.625 395.305 568.625 394.625 568.625 C394.51285156 569.17671875 394.40070312 569.7284375 394.28515625 570.296875 C393.51139227 573.02565211 392.35682306 575.35272943 391.0625 577.875 C390.60746094 578.76703125 390.15242187 579.6590625 389.68359375 580.578125 C389.33425781 581.25359375 388.98492188 581.9290625 388.625 582.625 C387.965 582.625 387.305 582.625 386.625 582.625 C386.480625 583.24375 386.33625 583.8625 386.1875 584.5 C385.625 586.625 385.625 586.625 384.625 588.625 C383.965 588.625 383.305 588.625 382.625 588.625 C382.480625 589.24375 382.33625 589.8625 382.1875 590.5 C381.625 592.625 381.625 592.625 380.625 594.625 C379.965 594.625 379.305 594.625 378.625 594.625 C378.480625 595.24375 378.33625 595.8625 378.1875 596.5 C377.625 598.625 377.625 598.625 376.625 600.625 C375.965 600.625 375.305 600.625 374.625 600.625 C374.480625 601.24375 374.33625 601.8625 374.1875 602.5 C373.625 604.625 373.625 604.625 372.625 606.625 C371.965 606.625 371.305 606.625 370.625 606.625 C370.480625 607.24375 370.33625 607.8625 370.1875 608.5 C369.625 610.625 369.625 610.625 368.625 612.625 C367.965 612.625 367.305 612.625 366.625 612.625 C366.625 613.615 366.625 614.605 366.625 615.625 C365.965 615.625 365.305 615.625 364.625 615.625 C364.625 616.285 364.625 616.945 364.625 617.625 C363.965 617.625 363.305 617.625 362.625 617.625 C362.625 618.615 362.625 619.605 362.625 620.625 C361.965 620.625 361.305 620.625 360.625 620.625 C360.625 621.285 360.625 621.945 360.625 622.625 C359.965 622.625 359.305 622.625 358.625 622.625 C358.480625 623.24375 358.33625 623.8625 358.1875 624.5 C357.625 626.625 357.625 626.625 356.625 628.625 C355.965 628.625 355.305 628.625 354.625 628.625 C354.625 629.285 354.625 629.945 354.625 630.625 C353.965 630.625 353.305 630.625 352.625 630.625 C352.625 631.285 352.625 631.945 352.625 632.625 C351.965 632.625 351.305 632.625 350.625 632.625 C350.625 633.945 350.625 635.265 350.625 636.625 C349.965 636.625 349.305 636.625 348.625 636.625 C348.625 637.285 348.625 637.945 348.625 638.625 C347.965 638.625 347.305 638.625 346.625 638.625 C346.625 639.285 346.625 639.945 346.625 640.625 C345.965 640.625 345.305 640.625 344.625 640.625 C344.356875 641.223125 344.08875 641.82125 343.8125 642.4375 C342.63191239 644.61226664 341.35683488 645.89316512 339.625 647.625 C339.295 648.615 338.965 649.605 338.625 650.625 C337.965 650.625 337.305 650.625 336.625 650.625 C336.625 651.285 336.625 651.945 336.625 652.625 C335.965 652.625 335.305 652.625 334.625 652.625 C334.625 653.285 334.625 653.945 334.625 654.625 C333.965 654.625 333.305 654.625 332.625 654.625 C332.625 655.285 332.625 655.945 332.625 656.625 C331.965 656.625 331.305 656.625 330.625 656.625 C330.625 657.285 330.625 657.945 330.625 658.625 C329.965 658.625 329.305 658.625 328.625 658.625 C328.625 659.285 328.625 659.945 328.625 660.625 C327.965 660.625 327.305 660.625 326.625 660.625 C325.965 661.945 325.305 663.265 324.625 664.625 C323.965 664.625 323.305 664.625 322.625 664.625 C322.35405518 665.2219165 322.08311035 665.81883301 321.80395508 666.43383789 C320.64063082 668.59594914 319.50573546 669.97593986 317.76171875 671.68359375 C317.20419922 672.23466797 316.64667969 672.78574219 316.07226562 673.35351562 C315.49154297 673.91748047 314.91082031 674.48144531 314.3125 675.0625 C313.74337891 675.62259766 313.17425781 676.18269531 312.58789062 676.75976562 C311.464261 677.86533461 310.33888458 678.96913139 309.21166992 680.07104492 C306.40365321 682.82116439 303.61791569 685.59174011 300.89453125 688.42578125 C299.50926073 689.86304584 298.068214 691.24592884 296.625 692.625 C295.965 692.625 295.305 692.625 294.625 692.625 C294.625 693.285 294.625 693.945 294.625 694.625 C293.965 694.625 293.305 694.625 292.625 694.625 C292.625 695.285 292.625 695.945 292.625 696.625 C291.965 696.625 291.305 696.625 290.625 696.625 C290.625 697.285 290.625 697.945 290.625 698.625 C289.965 698.625 289.305 698.625 288.625 698.625 C288.625 699.285 288.625 699.945 288.625 700.625 C287.965 700.625 287.305 700.625 286.625 700.625 C286.625 701.285 286.625 701.945 286.625 702.625 C285.965 702.625 285.305 702.625 284.625 702.625 C284.625 703.285 284.625 703.945 284.625 704.625 C283.965 704.625 283.305 704.625 282.625 704.625 C282.625 705.285 282.625 705.945 282.625 706.625 C281.965 706.625 281.305 706.625 280.625 706.625 C280.625 707.285 280.625 707.945 280.625 708.625 C279.635 708.625 278.645 708.625 277.625 708.625 C277.625 709.285 277.625 709.945 277.625 710.625 C275.975 711.285 274.325 711.945 272.625 712.625 C272.625 713.285 272.625 713.945 272.625 714.625 C271.965 714.625 271.305 714.625 270.625 714.625 C270.625 715.285 270.625 715.945 270.625 716.625 C269.965 716.625 269.305 716.625 268.625 716.625 C268.625 717.285 268.625 717.945 268.625 718.625 C267.965 718.625 267.305 718.625 266.625 718.625 C266.625 719.285 266.625 719.945 266.625 720.625 C261.21323529 724.625 261.21323529 724.625 258.625 724.625 C258.625 725.285 258.625 725.945 258.625 726.625 C257.965 726.625 257.305 726.625 256.625 726.625 C256.625 727.285 256.625 727.945 256.625 728.625 C255.965 728.625 255.305 728.625 254.625 728.625 C254.625 729.285 254.625 729.945 254.625 730.625 C249.21323529 734.625 249.21323529 734.625 246.625 734.625 C246.625 735.285 246.625 735.945 246.625 736.625 C245.965 736.625 245.305 736.625 244.625 736.625 C244.625 737.285 244.625 737.945 244.625 738.625 C242.975 739.285 241.325 739.945 239.625 740.625 C239.625 741.285 239.625 741.945 239.625 742.625 C238.635 742.625 237.645 742.625 236.625 742.625 C236.625 743.285 236.625 743.945 236.625 744.625 C235.965 744.625 235.305 744.625 234.625 744.625 C234.625 745.285 234.625 745.945 234.625 746.625 C229.21323529 750.625 229.21323529 750.625 226.625 750.625 C226.625 751.285 226.625 751.945 226.625 752.625 C225.965 752.625 225.305 752.625 224.625 752.625 C224.625 753.285 224.625 753.945 224.625 754.625 C221.625 756.625 221.625 756.625 218.625 756.625 C218.625 757.285 218.625 757.945 218.625 758.625 C213.21323529 762.625 213.21323529 762.625 210.625 762.625 C210.625 763.285 210.625 763.945 210.625 764.625 C205.21323529 768.625 205.21323529 768.625 202.625 768.625 C202.625 769.285 202.625 769.945 202.625 770.625 C199.625 772.625 199.625 772.625 196.625 772.625 C196.625 773.285 196.625 773.945 196.625 774.625 C193.625 776.625 193.625 776.625 190.625 776.625 C190.625 777.285 190.625 777.945 190.625 778.625 C189.965 778.625 189.305 778.625 188.625 778.625 C188.625 779.285 188.625 779.945 188.625 780.625 C186.645 781.285 184.665 781.945 182.625 782.625 C182.625 783.285 182.625 783.945 182.625 784.625 C180.645 785.285 178.665 785.945 176.625 786.625 C176.625 787.285 176.625 787.945 176.625 788.625 C173.625 790.625 173.625 790.625 170.625 790.625 C170.625 791.285 170.625 791.945 170.625 792.625 C170.09132813 792.90472656 169.55765625 793.18445313 169.0078125 793.47265625 C163.62134301 796.37091233 158.69573064 799.61678941 153.7890625 803.26953125 C151.625 804.625 151.625 804.625 148.625 804.625 C148.625 805.285 148.625 805.945 148.625 806.625 C145.625 808.625 145.625 808.625 142.625 808.625 C142.625 809.285 142.625 809.945 142.625 810.625 C135.875 814.625 135.875 814.625 133.625 814.625 C133.625 815.285 133.625 815.945 133.625 816.625 C132.305 816.625 130.985 816.625 129.625 816.625 C129.625 817.285 129.625 817.945 129.625 818.625 C128.635 818.625 127.645 818.625 126.625 818.625 C126.625 819.285 126.625 819.945 126.625 820.625 C125.305 820.625 123.985 820.625 122.625 820.625 C122.625 821.285 122.625 821.945 122.625 822.625 C121.635 822.625 120.645 822.625 119.625 822.625 C119.625 823.285 119.625 823.945 119.625 824.625 C118.635 824.625 117.645 824.625 116.625 824.625 C116.625 825.285 116.625 825.945 116.625 826.625 C110 830.625 110 830.625 106.625 830.625 C106.625 831.285 106.625 831.945 106.625 832.625 C100 836.625 100 836.625 96.625 836.625 C96.625 837.285 96.625 837.945 96.625 838.625 C90 842.625 90 842.625 86.625 842.625 C86.625 843.285 86.625 843.945 86.625 844.625 C83.97761084 846.0856285 82.73051666 846.625 79.625 846.625 C79.625 847.285 79.625 847.945 79.625 848.625 C76.97761084 850.0856285 75.73051666 850.625 72.625 850.625 C72.625 851.285 72.625 851.945 72.625 852.625 C71.635 852.625 70.645 852.625 69.625 852.625 C69.625 853.285 69.625 853.945 69.625 854.625 C68.305 854.625 66.985 854.625 65.625 854.625 C65.625 855.285 65.625 855.945 65.625 856.625 C62.97761084 858.0856285 61.73051666 858.625 58.625 858.625 C58.625 859.285 58.625 859.945 58.625 860.625 C57.305 860.625 55.985 860.625 54.625 860.625 C54.625 861.285 54.625 861.945 54.625 862.625 C48 866.625 48 866.625 44.625 866.625 C44.625 867.285 44.625 867.945 44.625 868.625 C43.305 868.625 41.985 868.625 40.625 868.625 C40.625 869.285 40.625 869.945 40.625 870.625 C39.635 870.625 38.645 870.625 37.625 870.625 C37.625 871.285 37.625 871.945 37.625 872.625 C36.35808493 873.29908308 35.08629251 873.96400497 33.8125 874.625 C33.10480469 874.99625 32.39710938 875.3675 31.66796875 875.75 C29.625 876.625 29.625 876.625 26.625 876.625 C26.625 877.285 26.625 877.945 26.625 878.625 C25.96113281 878.95113281 25.29726563 879.27726563 24.61328125 879.61328125 C19.05763809 882.35541819 19.05763809 882.35541819 13.6875 885.4375 C11.625 886.625 11.625 886.625 8.625 886.625 C8.625 887.285 8.625 887.945 8.625 888.625 C7.305 888.625 5.985 888.625 4.625 888.625 C4.625 889.285 4.625 889.945 4.625 890.625 C3.305 890.625 1.985 890.625 0.625 890.625 C0.625 891.285 0.625 891.945 0.625 892.625 C-0.365 892.625 -1.355 892.625 -2.375 892.625 C-2.375 893.285 -2.375 893.945 -2.375 894.625 C-9.80357143 897.91071429 -9.80357143 897.91071429 -13.375 898.625 C-13.375 899.285 -13.375 899.945 -13.375 900.625 C-14.695 900.625 -16.015 900.625 -17.375 900.625 C-17.375 901.285 -17.375 901.945 -17.375 902.625 C-18.695 902.625 -20.015 902.625 -21.375 902.625 C-21.375 903.285 -21.375 903.945 -21.375 904.625 C-22.365 904.625 -23.355 904.625 -24.375 904.625 C-24.375 905.285 -24.375 905.945 -24.375 906.625 C-26.30870231 907.63232399 -28.24710306 908.63063288 -30.1875 909.625 C-31.26644531 910.181875 -32.34539063 910.73875 -33.45703125 911.3125 C-36.375 912.625 -36.375 912.625 -39.375 912.625 C-39.375 913.285 -39.375 913.945 -39.375 914.625 C-40.695 914.625 -42.015 914.625 -43.375 914.625 C-43.375 915.285 -43.375 915.945 -43.375 916.625 C-44.64191507 917.29908308 -45.91370749 917.96400497 -47.1875 918.625 C-47.89519531 918.99625 -48.60289062 919.3675 -49.33203125 919.75 C-51.375 920.625 -51.375 920.625 -54.375 920.625 C-54.375 921.285 -54.375 921.945 -54.375 922.625 C-55.695 922.625 -57.015 922.625 -58.375 922.625 C-58.375 923.285 -58.375 923.945 -58.375 924.625 C-59.365 924.625 -60.355 924.625 -61.375 924.625 C-61.375 925.285 -61.375 925.945 -61.375 926.625 C-64.28100261 927.88164978 -66.17104584 928.625 -69.375 928.625 C-69.375 929.285 -69.375 929.945 -69.375 930.625 C-70.695 930.625 -72.015 930.625 -73.375 930.625 C-73.375 931.285 -73.375 931.945 -73.375 932.625 C-74.695 932.625 -76.015 932.625 -77.375 932.625 C-77.375 933.285 -77.375 933.945 -77.375 934.625 C-78.695 934.625 -80.015 934.625 -81.375 934.625 C-81.375 935.285 -81.375 935.945 -81.375 936.625 C-84.02238916 938.0856285 -85.26948334 938.625 -88.375 938.625 C-88.375 939.285 -88.375 939.945 -88.375 940.625 C-89.695 940.625 -91.015 940.625 -92.375 940.625 C-92.375 941.285 -92.375 941.945 -92.375 942.625 C-93.64191507 943.29908308 -94.91370749 943.96400497 -96.1875 944.625 C-96.89519531 944.99625 -97.60289062 945.3675 -98.33203125 945.75 C-100.375 946.625 -100.375 946.625 -103.375 946.625 C-103.375 947.285 -103.375 947.945 -103.375 948.625 C-104.695 948.625 -106.015 948.625 -107.375 948.625 C-107.375 949.285 -107.375 949.945 -107.375 950.625 C-108.695 950.625 -110.015 950.625 -111.375 950.625 C-111.375 951.285 -111.375 951.945 -111.375 952.625 C-123.67568337 959.51338269 -123.67568337 959.51338269 -131.375 958.625 C-131.705 957.635 -132.035 956.645 -132.375 955.625 C-131.715 954.635 -131.055 953.645 -130.375 952.625 C-129.715 952.625 -129.055 952.625 -128.375 952.625 C-128.375 951.965 -128.375 951.305 -128.375 950.625 C-123.08088235 946.625 -123.08088235 946.625 -119.375 946.625 C-119.375 945.965 -119.375 945.305 -119.375 944.625 C-112.75 940.625 -112.75 940.625 -109.375 940.625 C-109.375 939.965 -109.375 939.305 -109.375 938.625 C-106.72761084 937.1643715 -105.48051666 936.625 -102.375 936.625 C-102.375 935.965 -102.375 935.305 -102.375 934.625 C-100.725 933.965 -99.075 933.305 -97.375 932.625 C-97.375 931.965 -97.375 931.305 -97.375 930.625 C-95.625 929.37109375 -95.625 929.37109375 -93.375 928.0625 C-92.02732501 927.27401654 -90.68973966 926.4672551 -89.375 925.625 C-89.375 925.295 -89.375 924.965 -89.375 924.625 C-87.725 924.625 -86.075 924.625 -84.375 924.625 C-84.375 923.965 -84.375 923.305 -84.375 922.625 C-83.385 922.625 -82.395 922.625 -81.375 922.625 C-81.375 921.965 -81.375 921.305 -81.375 920.625 C-79.395 919.965 -77.415 919.305 -75.375 918.625 C-75.375 917.965 -75.375 917.305 -75.375 916.625 C-73.8359375 915.3984375 -73.8359375 915.3984375 -71.75 914 C-67.82742192 911.19021003 -65.27582738 908.15304978 -62.6015625 904.1640625 C-62.19679688 903.65617188 -61.79203125 903.14828125 -61.375 902.625 C-60.715 902.625 -60.055 902.625 -59.375 902.625 C-59.51609986 900.52051062 -59.66304175 898.4164123 -59.8125 896.3125 C-59.89371094 895.14074219 -59.97492188 893.96898437 -60.05859375 892.76171875 C-60.2617371 889.59909042 -60.2617371 889.59909042 -61.375 886.625 C-62.035 886.625 -62.695 886.625 -63.375 886.625 C-63.375 885.965 -63.375 885.305 -63.375 884.625 C-64.2 884.356875 -65.025 884.08875 -65.875 883.8125 C-68.2711117 882.99953353 -70.63814895 882.09697357 -72.97265625 881.12109375 C-77.71965803 879.35218935 -82.28151059 878.85715555 -87.3125 878.5 C-88.83242554 878.38217163 -88.83242554 878.38217163 -90.38305664 878.26196289 C-105.23963969 877.25475469 -120.1560557 877.174174 -135.04077148 876.96630859 C-136.10118652 876.95010971 -137.16160156 876.93391083 -138.25415039 876.91722107 C-140.27484163 876.88701422 -142.29560137 876.86102525 -144.31640625 876.83973694 C-145.21738037 876.82615646 -146.11835449 876.81257599 -147.04663086 876.79858398 C-147.83726425 876.78907211 -148.62789764 876.77956024 -149.44248962 876.76976013 C-151.375 876.625 -151.375 876.625 -153.375 875.625 C-154.71357726 875.48655725 -156.05780098 875.39996573 -157.40234375 875.34375 C-158.59053711 875.28767578 -158.59053711 875.28767578 -159.80273438 875.23046875 C-160.63095703 875.19566406 -161.45917969 875.16085937 -162.3125 875.125 C-163.94678464 875.05599971 -165.58091575 874.98323442 -167.21484375 874.90625 C-168.30333618 874.86081055 -168.30333618 874.86081055 -169.41381836 874.81445312 C-171.375 874.625 -171.375 874.625 -174.375 873.625 C-177.23930864 873.32260965 -180.10419934 873.11734231 -182.9765625 872.90625 C-185.375 872.625 -185.375 872.625 -186.375 871.625 C-188.18311184 871.41603683 -189.99716032 871.25719639 -191.8125 871.125 C-197.15515267 870.73492366 -197.15515267 870.73492366 -199.375 869.625 C-201.96643905 869.31454474 -204.55871732 869.11526088 -207.16015625 868.90625 C-209.375 868.625 -209.375 868.625 -210.375 867.625 C-212.49782377 867.38913069 -214.62104404 867.15629892 -216.74609375 866.94140625 C-228.46959459 865.53040541 -228.46959459 865.53040541 -230.375 863.625 C-232.1075 863.439375 -232.1075 863.439375 -233.875 863.25 C-237.77641836 862.80728586 -241.16799105 861.76799092 -244.85546875 860.45703125 C-249.61338849 858.88581124 -254.50391814 857.78713628 -259.375 856.625 C-259.375 855.965 -259.375 855.305 -259.375 854.625 C-260.6125 854.7178125 -260.6125 854.7178125 -261.875 854.8125 C-265.34139428 854.62680031 -267.88124669 853.79417611 -271.07421875 852.4921875 C-275.40151635 850.86118569 -279.9025189 849.78422764 -284.375 848.625 C-284.375 847.965 -284.375 847.305 -284.375 846.625 C-286.025 846.625 -287.675 846.625 -289.375 846.625 C-289.375 845.965 -289.375 845.305 -289.375 844.625 C-291.025 844.625 -292.675 844.625 -294.375 844.625 C-294.375 843.965 -294.375 843.305 -294.375 842.625 C-295.096875 842.480625 -295.81875 842.33625 -296.5625 842.1875 C-299.16666667 841.66666667 -301.77083333 841.14583333 -304.375 840.625 C-304.375 839.965 -304.375 839.305 -304.375 838.625 C-305.695 838.625 -307.015 838.625 -308.375 838.625 C-308.375 837.965 -308.375 837.305 -308.375 836.625 C-310.025 836.625 -311.675 836.625 -313.375 836.625 C-313.375 835.965 -313.375 835.305 -313.375 834.625 C-314.695 834.625 -316.015 834.625 -317.375 834.625 C-317.375 833.965 -317.375 833.305 -317.375 832.625 C-318.695 832.625 -320.015 832.625 -321.375 832.625 C-321.375 831.965 -321.375 831.305 -321.375 830.625 C-322.695 830.625 -324.015 830.625 -325.375 830.625 C-325.375 829.965 -325.375 829.305 -325.375 828.625 C-326.695 828.625 -328.015 828.625 -329.375 828.625 C-329.375 827.965 -329.375 827.305 -329.375 826.625 C-330.695 826.625 -332.015 826.625 -333.375 826.625 C-333.375 825.965 -333.375 825.305 -333.375 824.625 C-334.695 824.625 -336.015 824.625 -337.375 824.625 C-337.375 823.965 -337.375 823.305 -337.375 822.625 C-337.890625 822.521875 -338.40625 822.41875 -338.9375 822.3125 C-342.23526435 821.38236134 -345.24133332 820.01104488 -348.375 818.625 C-348.375 817.965 -348.375 817.305 -348.375 816.625 C-349.365 816.625 -350.355 816.625 -351.375 816.625 C-351.375 815.965 -351.375 815.305 -351.375 814.625 C-351.973125 814.480625 -352.57125 814.33625 -353.1875 814.1875 C-354.93650404 813.7377561 -356.66177023 813.19607659 -358.375 812.625 C-358.375 811.965 -358.375 811.305 -358.375 810.625 C-359.365 810.625 -360.355 810.625 -361.375 810.625 C-361.375 809.965 -361.375 809.305 -361.375 808.625 C-361.91125 808.521875 -362.4475 808.41875 -363 808.3125 C-366.00002044 807.44407303 -368.6129535 806.06879704 -371.375 804.625 C-371.375 803.965 -371.375 803.305 -371.375 802.625 C-373.355 801.965 -375.335 801.305 -377.375 800.625 C-377.375 799.965 -377.375 799.305 -377.375 798.625 C-379.355 797.965 -381.335 797.305 -383.375 796.625 C-383.375 795.965 -383.375 795.305 -383.375 794.625 C-384.035 794.625 -384.695 794.625 -385.375 794.625 C-385.375 793.965 -385.375 793.305 -385.375 792.625 C-387.355 791.965 -389.335 791.305 -391.375 790.625 C-391.375 789.965 -391.375 789.305 -391.375 788.625 C-393.355 787.965 -395.335 787.305 -397.375 786.625 C-397.375 785.965 -397.375 785.305 -397.375 784.625 C-398.035 784.625 -398.695 784.625 -399.375 784.625 C-399.375 783.965 -399.375 783.305 -399.375 782.625 C-400.035 782.625 -400.695 782.625 -401.375 782.625 C-401.375 781.965 -401.375 781.305 -401.375 780.625 C-401.99375 780.480625 -402.6125 780.33625 -403.25 780.1875 C-405.375 779.625 -405.375 779.625 -407.375 778.625 C-407.375 777.965 -407.375 777.305 -407.375 776.625 C-408.035 776.625 -408.695 776.625 -409.375 776.625 C-409.375 775.965 -409.375 775.305 -409.375 774.625 C-409.99375 774.480625 -410.6125 774.33625 -411.25 774.1875 C-413.375 773.625 -413.375 773.625 -415.375 772.625 C-415.375 771.965 -415.375 771.305 -415.375 770.625 C-416.035 770.625 -416.695 770.625 -417.375 770.625 C-417.375 769.965 -417.375 769.305 -417.375 768.625 C-418.035 768.625 -418.695 768.625 -419.375 768.625 C-419.375 767.965 -419.375 767.305 -419.375 766.625 C-420.035 766.625 -420.695 766.625 -421.375 766.625 C-421.375 765.965 -421.375 765.305 -421.375 764.625 C-422.035 764.625 -422.695 764.625 -423.375 764.625 C-423.375 763.965 -423.375 763.305 -423.375 762.625 C-424.035 762.625 -424.695 762.625 -425.375 762.625 C-425.375 761.965 -425.375 761.305 -425.375 760.625 C-426.24125 760.4703125 -426.24125 760.4703125 -427.125 760.3125 C-429.73161158 759.51603535 -431.3485311 758.43434723 -433.375 756.625 C-433.375 755.965 -433.375 755.305 -433.375 754.625 C-434.035 754.625 -434.695 754.625 -435.375 754.625 C-435.375 753.965 -435.375 753.305 -435.375 752.625 C-436.035 752.625 -436.695 752.625 -437.375 752.625 C-439.5 750.75 -439.5 750.75 -441.375 748.625 C-441.375 747.965 -441.375 747.305 -441.375 746.625 C-442.035 746.625 -442.695 746.625 -443.375 746.625 C-443.375 745.965 -443.375 745.305 -443.375 744.625 C-444.035 744.625 -444.695 744.625 -445.375 744.625 C-445.375 743.965 -445.375 743.305 -445.375 742.625 C-446.035 742.625 -446.695 742.625 -447.375 742.625 C-447.375 741.965 -447.375 741.305 -447.375 740.625 C-448.035 740.625 -448.695 740.625 -449.375 740.625 C-449.375 739.965 -449.375 739.305 -449.375 738.625 C-450.035 738.625 -450.695 738.625 -451.375 738.625 C-452.8828125 736.9453125 -452.8828125 736.9453125 -454.5 734.75 C-455.03882813 734.03070312 -455.57765625 733.31140625 -456.1328125 732.5703125 C-457.375 730.625 -457.375 730.625 -457.375 728.625 C-457.99375 728.3775 -458.6125 728.13 -459.25 727.875 C-461.72568687 726.41871361 -462.32625002 725.24687494 -463.375 722.625 C-464.035 722.625 -464.695 722.625 -465.375 722.625 C-465.375 721.965 -465.375 721.305 -465.375 720.625 C-466.035 720.625 -466.695 720.625 -467.375 720.625 C-467.375 719.965 -467.375 719.305 -467.375 718.625 C-468.035 718.625 -468.695 718.625 -469.375 718.625 C-473.375 714.27205882 -473.375 714.27205882 -473.375 710.625 C-474.035 710.625 -474.695 710.625 -475.375 710.625 C-475.375 709.965 -475.375 709.305 -475.375 708.625 C-476.035 708.625 -476.695 708.625 -477.375 708.625 C-477.375 707.965 -477.375 707.305 -477.375 706.625 C-478.035 706.625 -478.695 706.625 -479.375 706.625 C-479.375 705.635 -479.375 704.645 -479.375 703.625 C-480.035 703.625 -480.695 703.625 -481.375 703.625 C-481.375 702.635 -481.375 701.645 -481.375 700.625 C-482.035 700.625 -482.695 700.625 -483.375 700.625 C-485.375 697.625 -485.375 697.625 -485.375 694.625 C-486.035 694.625 -486.695 694.625 -487.375 694.625 C-487.375 693.965 -487.375 693.305 -487.375 692.625 C-488.035 692.625 -488.695 692.625 -489.375 692.625 C-493.375 687.21323529 -493.375 687.21323529 -493.375 684.625 C-494.035 684.625 -494.695 684.625 -495.375 684.625 C-499.375 678 -499.375 678 -499.375 674.625 C-500.035 674.625 -500.695 674.625 -501.375 674.625 C-501.375 673.635 -501.375 672.645 -501.375 671.625 C-502.035 671.625 -502.695 671.625 -503.375 671.625 C-503.375 670.635 -503.375 669.645 -503.375 668.625 C-504.035 668.625 -504.695 668.625 -505.375 668.625 C-505.375 667.635 -505.375 666.645 -505.375 665.625 C-506.035 665.625 -506.695 665.625 -507.375 665.625 C-507.375 664.635 -507.375 663.645 -507.375 662.625 C-508.035 662.625 -508.695 662.625 -509.375 662.625 C-511.375 659.625 -511.375 659.625 -511.375 656.625 C-512.035 656.625 -512.695 656.625 -513.375 656.625 C-513.808125 655.408125 -514.24125 654.19125 -514.6875 652.9375 C-515.65275877 650.33589778 -516.62400181 648.20999698 -518.0625 645.8125 C-519.375 643.625 -519.375 643.625 -519.375 640.625 C-520.035 640.625 -520.695 640.625 -521.375 640.625 C-521.375 639.305 -521.375 637.985 -521.375 636.625 C-522.035 636.625 -522.695 636.625 -523.375 636.625 C-523.375 635.305 -523.375 633.985 -523.375 632.625 C-524.035 632.625 -524.695 632.625 -525.375 632.625 C-525.375 631.305 -525.375 629.985 -525.375 628.625 C-526.035 628.625 -526.695 628.625 -527.375 628.625 C-528.97855101 625.11723216 -529.59536864 622.48145121 -529.375 618.625 C-530.035 618.625 -530.695 618.625 -531.375 618.625 C-531.375 616.975 -531.375 615.325 -531.375 613.625 C-532.035 613.625 -532.695 613.625 -533.375 613.625 C-534.69126692 610.00526598 -535.375 607.52932869 -535.375 603.625 C-536.035 603.625 -536.695 603.625 -537.375 603.625 C-537.375 601.975 -537.375 600.325 -537.375 598.625 C-538.035 598.625 -538.695 598.625 -539.375 598.625 C-539.375 596.975 -539.375 595.325 -539.375 593.625 C-540.035 593.625 -540.695 593.625 -541.375 593.625 C-541.55675781 592.8515625 -541.73851562 592.078125 -541.92578125 591.28125 C-543.62648829 584.19329518 -543.62648829 584.19329518 -546 577.3125 C-547.34779896 573.69794825 -547.90816371 570.43749637 -548.375 566.625 C-548.705 566.295 -549.035 565.965 -549.375 565.625 C-549.53458101 564.27447186 -549.65228276 562.91890838 -549.75 561.5625 C-550.06374351 558.30162482 -550.63325448 555.68787701 -551.9375 552.6875 C-553.86754178 548.04977824 -553.64870604 543.57198331 -553.375 538.625 C-554.035 538.625 -554.695 538.625 -555.375 538.625 C-555.375 535.985 -555.375 533.345 -555.375 530.625 C-556.035 530.625 -556.695 530.625 -557.375 530.625 C-557.43558594 529.42101562 -557.49617187 528.21703125 -557.55859375 526.9765625 C-557.64299732 525.40102923 -557.72764541 523.82550904 -557.8125 522.25 C-557.85181641 521.4559375 -557.89113281 520.661875 -557.93164062 519.84375 C-558.06393404 515.59898779 -558.06393404 515.59898779 -559.375 511.625 C-559.58086578 509.50343877 -559.74114622 507.37731896 -559.875 505.25 C-560.09575964 500.93831135 -560.09575964 500.93831135 -560.88449097 496.71458435 C-561.42354552 494.41819453 -561.50202971 492.38536394 -561.50439453 490.02758789 C-561.50912277 488.67081688 -561.50912277 488.67081688 -561.51394653 487.28663635 C-561.5119223 486.31677292 -561.50989807 485.34690948 -561.5078125 484.34765625 C-561.50924759 482.84240639 -561.50924759 482.84240639 -561.51071167 481.30674744 C-561.51139168 479.18602435 -561.50954985 477.06529916 -561.50537109 474.94458008 C-561.50002596 471.70324001 -561.50531927 468.46203886 -561.51171875 465.22070312 C-561.51105783 463.15885386 -561.50977637 461.09700468 -561.5078125 459.03515625 C-561.51084885 457.58339745 -561.51084885 457.58339745 -561.51394653 456.10231018 C-561.51079437 455.19464401 -561.50764221 454.28697784 -561.50439453 453.35180664 C-561.50359894 452.55778946 -561.50280334 451.76377228 -561.50198364 450.94569397 C-561.36415194 448.42674589 -560.89332442 446.0913332 -560.375 443.625 C-560.08140571 439.95507135 -559.86975745 436.28475325 -559.65625 432.609375 C-559.375 429.625 -559.375 429.625 -558.375 428.625 C-558.13798761 425.76622091 -557.95280818 422.92616703 -557.8125 420.0625 C-557.76931641 419.25619141 -557.72613281 418.44988281 -557.68164062 417.61914062 C-557.57524738 415.62131195 -557.47459112 413.6231793 -557.375 411.625 C-557.045 411.625 -556.715 411.625 -556.375 411.625 C-556.045 409.645 -555.715 407.665 -555.375 405.625 C-554.715 405.625 -554.055 405.625 -553.375 405.625 C-553.40980469 405.068125 -553.44460938 404.51125 -553.48046875 403.9375 C-553.65262361 399.08437266 -553.16846503 395.65004081 -551.234375 391.125 C-549.82805338 387.03388257 -549.18937218 382.77785069 -548.46557617 378.52319336 C-547.70280463 374.10387561 -546.67287819 369.90855507 -545.375 365.625 C-544.715 365.625 -544.055 365.625 -543.375 365.625 C-543.375 363.645 -543.375 361.665 -543.375 359.625 C-542.715 359.625 -542.055 359.625 -541.375 359.625 C-541.375 357.975 -541.375 356.325 -541.375 354.625 C-540.715 354.625 -540.055 354.625 -539.375 354.625 C-539.375 353.305 -539.375 351.985 -539.375 350.625 C-538.715 350.625 -538.055 350.625 -537.375 350.625 C-537.375 348.315 -537.375 346.005 -537.375 343.625 C-536.715 343.625 -536.055 343.625 -535.375 343.625 C-535.375 342.635 -535.375 341.645 -535.375 340.625 C-534.715 340.625 -534.055 340.625 -533.375 340.625 C-533.375 338.645 -533.375 336.665 -533.375 334.625 C-532.715 334.625 -532.055 334.625 -531.375 334.625 C-530.62258891 330.97043185 -529.97450296 327.30766103 -529.375 323.625 C-528.715 323.625 -528.055 323.625 -527.375 323.625 C-527.375 322.635 -527.375 321.645 -527.375 320.625 C-526.715 320.625 -526.055 320.625 -525.375 320.625 C-525.375 319.305 -525.375 317.985 -525.375 316.625 C-524.715 316.625 -524.055 316.625 -523.375 316.625 C-523.375 315.635 -523.375 314.645 -523.375 313.625 C-522.715 313.625 -522.055 313.625 -521.375 313.625 C-521.375 312.305 -521.375 310.985 -521.375 309.625 C-520.715 309.625 -520.055 309.625 -519.375 309.625 C-519.375 308.635 -519.375 307.645 -519.375 306.625 C-518.715 306.625 -518.055 306.625 -517.375 306.625 C-517.375 305.305 -517.375 303.985 -517.375 302.625 C-516.715 302.625 -516.055 302.625 -515.375 302.625 C-515.375 301.305 -515.375 299.985 -515.375 298.625 C-514.715 298.625 -514.055 298.625 -513.375 298.625 C-513.271875 298.08875 -513.16875 297.5525 -513.0625 297 C-512.19407303 293.99997956 -510.81879704 291.3870465 -509.375 288.625 C-508.715 288.625 -508.055 288.625 -507.375 288.625 C-506.715 286.645 -506.055 284.665 -505.375 282.625 C-504.715 282.625 -504.055 282.625 -503.375 282.625 C-502.715 280.645 -502.055 278.665 -501.375 276.625 C-500.715 276.625 -500.055 276.625 -499.375 276.625 C-499.230625 276.026875 -499.08625 275.42875 -498.9375 274.8125 C-498.4877561 273.06349596 -497.94607659 271.33822977 -497.375 269.625 C-496.715 269.625 -496.055 269.625 -495.375 269.625 C-495.375 268.635 -495.375 267.645 -495.375 266.625 C-494.715 266.625 -494.055 266.625 -493.375 266.625 C-493.2821875 265.820625 -493.2821875 265.820625 -493.1875 265 C-491.97464736 261.45473843 -489.92889074 259.3657608 -487.375 256.625 C-486.715 256.625 -486.055 256.625 -485.375 256.625 C-485.230625 256.00625 -485.08625 255.3875 -484.9375 254.75 C-484.375 252.625 -484.375 252.625 -483.375 250.625 C-482.715 250.625 -482.055 250.625 -481.375 250.625 C-481.08625 249.861875 -480.7975 249.09875 -480.5 248.3125 C-479.375 245.625 -479.375 245.625 -477.375 242.625 C-476.715 242.625 -476.055 242.625 -475.375 242.625 C-475.375 241.965 -475.375 241.305 -475.375 240.625 C-474.715 240.625 -474.055 240.625 -473.375 240.625 C-472.715 239.305 -472.055 237.985 -471.375 236.625 C-470.715 236.625 -470.055 236.625 -469.375 236.625 C-469.230625 236.00625 -469.08625 235.3875 -468.9375 234.75 C-468.375 232.625 -468.375 232.625 -467.375 230.625 C-466.715 230.625 -466.055 230.625 -465.375 230.625 C-465.375 229.965 -465.375 229.305 -465.375 228.625 C-464.715 228.625 -464.055 228.625 -463.375 228.625 C-463.375 227.965 -463.375 227.305 -463.375 226.625 C-462.715 226.625 -462.055 226.625 -461.375 226.625 C-461.375 225.965 -461.375 225.305 -461.375 224.625 C-460.715 224.625 -460.055 224.625 -459.375 224.625 C-459.375 223.965 -459.375 223.305 -459.375 222.625 C-458.715 222.625 -458.055 222.625 -457.375 222.625 C-457.375 221.965 -457.375 221.305 -457.375 220.625 C-456.715 220.625 -456.055 220.625 -455.375 220.625 C-455.375 219.965 -455.375 219.305 -455.375 218.625 C-454.715 218.625 -454.055 218.625 -453.375 218.625 C-453.375 217.965 -453.375 217.305 -453.375 216.625 C-452.715 216.625 -452.055 216.625 -451.375 216.625 C-451.045 215.635 -450.715 214.645 -450.375 213.625 C-446.8125 211.9375 -446.8125 211.9375 -443.375 210.625 C-444.8215397 214.69618905 -446.82303371 217.93511545 -449.25 221.5 C-455.78838992 231.41901168 -461.08062899 242.00602475 -466.375 252.625 C-466.8095752 253.48528809 -467.24415039 254.34557617 -467.69189453 255.23193359 C-488.14127702 296.12270742 -498.51658334 343.02161491 -499.375 388.625 C-499.41367187 390.03555664 -499.41367187 390.03555664 -499.453125 391.47460938 C-501.60997479 476.29272726 -473.41545211 559.6902116 -421.375 626.625 C-420.515625 627.7421875 -419.65625 628.859375 -418.796875 629.9765625 C-406.87736904 645.38738017 -394.27206941 661.48618331 -379.25390625 673.99609375 C-377.06803324 675.89112295 -375.07932177 677.92626616 -373.0625 680 C-368.14985411 684.96294602 -362.844634 689.29367988 -357.375 693.625 C-356.33800125 694.46417638 -355.30155778 695.30403932 -354.265625 696.14453125 C-295.69083457 743.33342561 -225.06065059 770.84806257 -150.375 777.625 C-149.60542969 777.69702637 -148.83585937 777.76905273 -148.04296875 777.84326172 C-83.77926907 783.63375282 -18.18310101 770.14043666 40.625 744.625 C41.54732422 744.22925781 42.46964844 743.83351563 43.41992188 743.42578125 C55.81243852 738.0899879 67.80637661 732.13020868 79.625 725.625 C80.45612305 725.16754395 81.28724609 724.71008789 82.14355469 724.23876953 C98.95505358 714.92498173 115.70319797 705.09203078 131.08203125 693.52734375 C133.53563398 691.69185292 136.03379131 689.93100597 138.5456543 688.17651367 C146.60592326 682.5241902 154.22328886 676.39335942 161.80761719 670.12207031 C164.33467329 668.04040615 166.88873365 665.99248825 169.4375 663.9375 C174.12927121 660.09813768 178.61507411 656.06297632 183.07421875 651.95703125 C185.22575151 649.99000972 187.40791973 648.07946871 189.625 646.1875 C193.62093203 642.73872879 197.29458826 638.98790836 200.9453125 635.17993164 C202.13566266 633.95858278 203.37674094 632.78709977 204.625 631.625 C205.285 631.625 205.945 631.625 206.625 631.625 C206.88982178 631.03275635 207.15464355 630.4405127 207.42749023 629.83032227 C208.66460362 627.55206637 209.92097577 626.12687465 211.78515625 624.33984375 C212.40938477 623.73253418 213.03361328 623.12522461 213.67675781 622.49951172 C214.34030273 621.86029785 215.00384766 621.22108398 215.6875 620.5625 C220.96337051 615.385349 225.89649212 610.14650722 230.4765625 604.33203125 C232.39280422 601.91756668 234.37541418 599.57972064 236.39648438 597.25292969 C296.23559913 528.04506465 333.25836578 437.40625597 331.625 345.625 C331.60614746 344.42568848 331.60614746 344.42568848 331.58691406 343.20214844 C330.31240288 280.17887094 306.82203207 214.67368037 268.625 164.625 C267.86960937 163.61566406 267.11421875 162.60632813 266.3359375 161.56640625 C260.10314311 153.29068911 253.46866948 145.4001373 246.625 137.625 C246.18075684 137.11614258 245.73651367 136.60728516 245.27880859 136.08300781 C234.21867216 123.46305522 221.86260474 111.93066841 208.625 101.625 C208.02139648 101.14885254 207.41779297 100.67270508 206.79589844 100.18212891 C177.47252723 77.07864884 145.18942542 58.71057646 110.625 44.625 C109.84833984 44.30724609 109.07167969 43.98949219 108.27148438 43.66210938 C25.86089491 10.45187183 -71.53752119 8.87509555 -157.375 28.625 C-158.56254883 28.89715332 -159.75009766 29.16930664 -160.97363281 29.44970703 C-177.4373665 33.27396013 -193.46902985 37.91212547 -209.375 43.625 C-210.37515137 43.98352051 -211.37530273 44.34204102 -212.40576172 44.71142578 C-228.16638345 50.40436864 -243.79431547 56.52724071 -258.91015625 63.78125 C-259.6055249 64.11431152 -260.30089355 64.44737305 -261.01733398 64.79052734 C-262.86385186 65.68411376 -264.70183311 66.59528135 -266.5390625 67.5078125 C-269.375 68.625 -269.375 68.625 -272.375 67.625 C-271.77139648 67.29814209 -271.16779297 66.97128418 -270.54589844 66.63452148 C-251.9582761 58.68917762 -251.9582761 58.68917762 -237.375 46.625 C-236.055 46.625 -234.735 46.625 -233.375 46.625 C-233.375 45.965 -233.375 45.305 -233.375 44.625 C-230.075 43.965 -226.775 43.305 -223.375 42.625 C-223.375 41.965 -223.375 41.305 -223.375 40.625 C-221.395 40.625 -219.415 40.625 -217.375 40.625 C-217.375 39.965 -217.375 39.305 -217.375 38.625 C-216.385 38.625 -215.395 38.625 -214.375 38.625 C-214.375 37.965 -214.375 37.305 -214.375 36.625 C-213.281875 36.33625 -212.18875 36.0475 -211.0625 35.75 C-207.33486155 34.80606796 -207.33486155 34.80606796 -204.375 32.625 C-200.4717901 31.34758585 -197.50260017 30.625 -193.375 30.625 C-193.375 29.965 -193.375 29.305 -193.375 28.625 C-192.240625 28.480625 -191.10625 28.33625 -189.9375 28.1875 C-186.56722799 28.01328522 -186.56722799 28.01328522 -185.375 26.625 C-183.70882885 26.58436168 -182.04111905 26.582279 -180.375 26.625 C-180.375 25.965 -180.375 25.305 -180.375 24.625 C-178.065 24.625 -175.755 24.625 -173.375 24.625 C-173.375 23.965 -173.375 23.305 -173.375 22.625 C-171.725 22.625 -170.075 22.625 -168.375 22.625 C-168.375 21.965 -168.375 21.305 -168.375 20.625 C-167.23224609 20.35236328 -167.23224609 20.35236328 -166.06640625 20.07421875 C-161.16673184 18.88141412 -156.36101521 17.67929194 -151.625 15.9375 C-147.3967285 14.45335352 -143.83400014 14.38178181 -139.375 14.625 C-139.375 13.965 -139.375 13.305 -139.375 12.625 C-138.66214844 12.58761719 -137.94929688 12.55023438 -137.21484375 12.51171875 C-135.77818359 12.41310547 -135.77818359 12.41310547 -134.3125 12.3125 C-133.37277344 12.25449219 -132.43304688 12.19648437 -131.46484375 12.13671875 C-128.24877017 11.7446519 -128.24877017 11.7446519 -125.0625 10.09375 C-120.62210359 8.32511753 -117.14675112 8.28012143 -112.4375 8.4375 C-111.65826172 8.45103516 -110.87902344 8.46457031 -110.07617188 8.47851562 C-108.17547596 8.51349776 -106.27514166 8.56729041 -104.375 8.625 C-104.375 7.965 -104.375 7.305 -104.375 6.625 C-101.735 6.625 -99.095 6.625 -96.375 6.625 C-96.375 5.965 -96.375 5.305 -96.375 4.625 C-91.755 4.625 -87.135 4.625 -82.375 4.625 C-82.375 3.965 -82.375 3.305 -82.375 2.625 C-81.43648193 2.58741577 -81.43648193 2.58741577 -80.47900391 2.54907227 C-77.65245381 2.43324727 -74.82624831 2.31046015 -72 2.1875 C-70.52273438 2.12852539 -70.52273438 2.12852539 -69.015625 2.06835938 C-68.07460938 2.02646484 -67.13359375 1.98457031 -66.1640625 1.94140625 C-64.86009521 1.88641968 -64.86009521 1.88641968 -63.52978516 1.83032227 C-61.3266738 1.75098456 -61.3266738 1.75098456 -59.375 0.625 C-54.45027855 0.22537639 -49.50096348 0.14058312 -44.5625 0 C-43.43325104 -0.03368683 -43.43325104 -0.03368683 -42.28118896 -0.0680542 C-28.17967977 -0.46842415 -14.10188165 -0.31758108 0 0 Z " fill="#7367F0" transform="translate(596.375,114.375)"/>
<path d="M0 0 C0.91144775 0.41693115 0.91144775 0.41693115 1.84130859 0.84228516 C28.13791485 13.0817831 48.54001092 36.36610645 58.90136719 63.34716797 C60.55145769 68.1680409 61.82168227 73.04489095 63 78 C63.24363281 78.90105469 63.48726562 79.80210937 63.73828125 80.73046875 C69.7682012 106.53196295 62.53792103 134.95677556 48.93359375 157.10546875 C31.05969053 183.86216023 5.50672838 202.72889033 -26.2890625 209.14453125 C-32.24383308 210.16109861 -38.09354817 210.34539968 -44.125 210.3125 C-45.2188501 210.30686035 -46.3127002 210.3012207 -47.43969727 210.29541016 C-79.09882051 209.82542097 -107.48425688 196.76281327 -130.3125 175.125 C-151.51305279 153.05699415 -159.79426963 124.33059463 -159.3125 94.34375 C-158.1937978 63.28111888 -142.76693529 36.30307104 -120.53710938 15.40234375 C-88.38004043 -13.93536337 -38.44009166 -17.86652148 0 0 Z " fill="#7367F0" transform="translate(741,399)"/>
<path d="M0 0 C2.46065393 2.18849069 4.83941378 4.43813069 7.203125 6.73046875 C7.81542969 7.26929688 8.42773438 7.808125 9.05859375 8.36328125 C25.87798033 23.68162417 33.69020303 48.75818661 35.203125 70.73046875 C35.40011994 90.69262279 27.6123161 110.03245969 14.203125 124.73046875 C13.68621094 125.33890625 13.16929687 125.94734375 12.63671875 126.57421875 C0.08717773 140.41331161 -21.30591786 149.41070844 -39.59375 150.96875 C-61.62435071 151.52242912 -83.68265188 142.96813245 -99.6418457 127.84033203 C-101.03874285 126.48250084 -102.41836796 125.10696631 -103.796875 123.73046875 C-104.78300781 122.76173828 -104.78300781 122.76173828 -105.7890625 121.7734375 C-122.40784863 104.19734802 -129.22481743 79.4820781 -129.01171875 55.828125 C-128.14143357 33.38990285 -119.5738389 12.72979697 -103.0390625 -2.57421875 C-73.76497011 -27.9403184 -28.84169311 -23.40366438 0 0 Z " fill="#7367F0" transform="translate(323.796875,420.26953125)"/>
<path d="M0 0 C3.96 1.98 3.96 1.98 8 4 C5.3333581 5.33332095 3.83319697 4.67102033 1 4 C1 3.34 1 2.68 1 2 C0.34 1.67 -0.32 1.34 -1 1 C-0.67 0.67 -0.34 0.34 0 0 Z " fill="#7367F0" transform="translate(398,722)"/>
<path d="M0 0 C1.65 0 3.3 0 5 0 C3.515 1.485 3.515 1.485 2 3 C1.01 2.67 0.02 2.34 -1 2 C-0.67 1.34 -0.34 0.68 0 0 Z " fill="#7367F0" transform="translate(481,759)"/>
<path d="M0 0 C1.32 0.99 2.64 1.98 4 3 C2.68 3 1.36 3 0 3 C0 2.01 0 1.02 0 0 Z " fill="#7367F0" transform="translate(272,658)"/>
<path d="M0 0 C1.98 0.99 1.98 0.99 4 2 C3.67 2.99 3.34 3.98 3 5 C1.5 3.625 1.5 3.625 0 2 C0 1.34 0 0.68 0 0 Z " fill="#7367F0" transform="translate(617,844)"/>
<path d="M0 0 C0.66 0 1.32 0 2 0 C2 0.66 2 1.32 2 2 C2.99 2.33 3.98 2.66 5 3 C4.01 3.495 4.01 3.495 3 4 C1.97895449 3.02149805 0.9793879 2.02019573 0 1 C0 0.67 0 0.34 0 0 Z " fill="#7367F0" transform="translate(313,678)"/>
<path d="M0 0 C1.32 1.32 2.64 2.64 4 4 C2.68 3.34 1.36 2.68 0 2 C0 1.34 0 0.68 0 0 Z " fill="#7367F0" transform="translate(206,612)"/>
<path d="M0 0 C1.32 0.33 2.64 0.66 4 1 C3.01 1.33 2.02 1.66 1 2 C0.67 1.34 0.34 0.68 0 0 Z " fill="#7367F0" transform="translate(579,825)"/>
<path d="M0 0 C2.475 0.495 2.475 0.495 5 1 C5 1.33 5 1.66 5 2 C3.35 2 1.7 2 0 2 C0 1.34 0 0.68 0 0 Z " fill="#7367F0" transform="translate(286,666)"/>
<path d="M0 0 C0.66 1.32 1.32 2.64 2 4 C1.34 3.67 0.68 3.34 0 3 C0 2.01 0 1.02 0 0 Z " fill="#7367F0" transform="translate(384,714)"/>
<path d="M0 0 C1.98 0.99 1.98 0.99 4 2 C2.68 2 1.36 2 0 2 C0 1.34 0 0.68 0 0 Z " fill="#7367F0" transform="translate(309,676)"/>
<path d="M0 0 C0.99 0 1.98 0 3 0 C3 0.66 3 1.32 3 2 C2.01 1.67 1.02 1.34 0 1 C0 0.67 0 0.34 0 0 Z " fill="#7367F0" transform="translate(255,652)"/>
<path d="M0 0 C0.66 1.32 1.32 2.64 2 4 C1.34 3.67 0.68 3.34 0 3 C0 2.01 0 1.02 0 0 Z " fill="#7367F0" transform="translate(240,640)"/>
<path d="M0 0 C0.66 0 1.32 0 2 0 C2 0.66 2 1.32 2 2 C1.01 1.67 0.02 1.34 -1 1 C-0.67 0.67 -0.34 0.34 0 0 Z " fill="#7367F0" transform="translate(210,620)"/>
<path d="M0 0 C0.99 0.495 0.99 0.495 2 1 C2 1.66 2 2.32 2 3 C1.34 3 0.68 3 0 3 C0 2.01 0 1.02 0 0 Z " fill="#7367F0" transform="translate(117,568)"/>
<path d="M0 0 C0.66 0 1.32 0 2 0 C2 0.66 2 1.32 2 2 C1.34 2 0.68 2 0 2 C0 1.34 0 0.68 0 0 Z " fill="#7367F0" transform="translate(520,784)"/>
<path d="M0 0 C0.66 0.66 1.32 1.32 2 2 C1.01 1.67 0.02 1.34 -1 1 C-0.67 0.67 -0.34 0.34 0 0 Z " fill="#7367F0" transform="translate(444,744)"/>
<path d="M0 0 C0.99 0.495 0.99 0.495 2 1 C1.67 1.66 1.34 2.32 1 3 C0.67 2.01 0.34 1.02 0 0 Z " fill="#7367F0" transform="translate(432,737)"/>
<path d="M0 0 C0.66 0.66 1.32 1.32 2 2 C1.01 1.67 0.02 1.34 -1 1 C-0.67 0.67 -0.34 0.34 0 0 Z " fill="#7367F0" transform="translate(420,732)"/>
<path d="M0 0 C0.99 0 1.98 0 3 0 C2.67 0.66 2.34 1.32 2 2 C1.34 1.34 0.68 0.68 0 0 Z " fill="#7367F0" transform="translate(329,685)"/>
<path d="M0 0 C0.66 0 1.32 0 2 0 C2 0.66 2 1.32 2 2 C1.34 2 0.68 2 0 2 C0 1.34 0 0.68 0 0 Z " fill="#7367F0" transform="translate(233,636)"/>
<path d="M0 0 C0.66 0.66 1.32 1.32 2 2 C1.01 2.495 1.01 2.495 0 3 C0 2.01 0 1.02 0 0 Z " fill="#7367F0" transform="translate(228,629)"/>
<path d="M0 0 C1.485 0.99 1.485 0.99 3 2 C2.01 2 1.02 2 0 2 C0 1.34 0 0.68 0 0 Z " fill="#7367F0" transform="translate(183,601)"/>
<path d="M0 0 C0.66 0.66 1.32 1.32 2 2 C1.01 2.495 1.01 2.495 0 3 C0 2.01 0 1.02 0 0 Z " fill="#7367F0" transform="translate(161,591)"/>
<path d="M0 0 C0.66 0.66 1.32 1.32 2 2 C1.01 1.67 0.02 1.34 -1 1 C-0.67 0.67 -0.34 0.34 0 0 Z " fill="#7367F0" transform="translate(140,584)"/>
<path d="M0 0 C0.99 0.495 0.99 0.495 2 1 C1.67 1.66 1.34 2.32 1 3 C0.67 2.01 0.34 1.02 0 0 Z " fill="#7367F0" transform="translate(136,581)"/>
<path d="M0 0 C0.99 1.485 0.99 1.485 2 3 C1.34 3 0.68 3 0 3 C0 2.01 0 1.02 0 0 Z " fill="#7367F0" transform="translate(120,573)"/>
<path d="" fill="#7367F0" transform="translate(0,0)"/>
<path d="M0 0 C3 1 3 1 3 1 Z " fill="#7367F0" transform="translate(595,827)"/>
<path d="M0 0 C0.99 0.495 0.99 0.495 2 1 C1.01 1.495 1.01 1.495 0 2 C0 1.34 0 0.68 0 0 Z " fill="#7367F0" transform="translate(538,796)"/>
<path d="M0 0 C3 1 3 1 3 1 Z " fill="#7367F0" transform="translate(523,785)"/>
<path d="" fill="#7367F0" transform="translate(0,0)"/>
<path d="M0 0 C3 1 3 1 3 1 Z " fill="#7367F0" transform="translate(423,733)"/>
<path d="M0 0 C3 1 3 1 3 1 Z " fill="#7367F0" transform="translate(419,725)"/>
<path d="M0 0 C0.66 0 1.32 0 2 0 C1.67 0.66 1.34 1.32 1 2 C0.67 1.34 0.34 0.68 0 0 Z " fill="#7367F0" transform="translate(306,675)"/>
<path d="M0 0 C0.66 0 1.32 0 2 0 C1.67 0.66 1.34 1.32 1 2 C0.67 1.34 0.34 0.68 0 0 Z " fill="#7367F0" transform="translate(235,640)"/>
<path d="M0 0 C0.66 0.66 1.32 1.32 2 2 C1.34 2 0.68 2 0 2 C0 1.34 0 0.68 0 0 Z " fill="#7367F0" transform="translate(231,634)"/>
<path d="M0 0 C3 1 3 1 3 1 Z " fill="#7367F0" transform="translate(171,593)"/>
<path d="M0 0 C3 1 3 1 3 1 Z " fill="#7367F0" transform="translate(147,585)"/>
<path d="M0 0 C3 1 3 1 3 1 Z " fill="#7367F0" transform="translate(143,585)"/>
<path d="M0 0 C0.66 0.66 1.32 1.32 2 2 C1.34 2 0.68 2 0 2 C0 1.34 0 0.68 0 0 Z " fill="#7367F0" transform="translate(116,583)"/>
<path d="M0 0 C3 1 3 1 3 1 Z " fill="#7367F0" transform="translate(112,578)"/>
<path d="" fill="#7367F0" transform="translate(0,0)"/>
<path d="M0 0 C0.99 0.495 0.99 0.495 2 1 C1.01 1.495 1.01 1.495 0 2 C0 1.34 0 0.68 0 0 Z " fill="#7367F0" transform="translate(118,572)"/>
<path d="M0 0 C2 1 2 1 2 1 Z " fill="#7367F0" transform="translate(616,841)"/>
<path d="M0 0 C2 1 2 1 2 1 Z " fill="#7367F0" transform="translate(591,826)"/>
<path d="M0 0 C2 1 2 1 2 1 Z " fill="#7367F0" transform="translate(563,809)"/>
<path d="M0 0 C2 1 2 1 2 1 Z " fill="#7367F0" transform="translate(553,802)"/>
<path d="M0 0 C2 1 2 1 2 1 Z " fill="#7367F0" transform="translate(551,801)"/>
<path d="" fill="#7367F0" transform="translate(0,0)"/>
<path d="M0 0 C2 1 2 1 2 1 Z " fill="#7367F0" transform="translate(493,767)"/>
<path d="" fill="#7367F0" transform="translate(0,0)"/>
<path d="M0 0 C2 1 2 1 2 1 Z " fill="#7367F0" transform="translate(473,753)"/>
<path d="M0 0 C2 1 2 1 2 1 Z " fill="#7367F0" transform="translate(480,751)"/>
<path d="M0 0 C2 1 2 1 2 1 Z " fill="#7367F0" transform="translate(476,751)"/>
<path d="M0 0 C2 1 2 1 2 1 Z " fill="#7367F0" transform="translate(472,751)"/>
<path d="M0 0 C2 1 2 1 2 1 Z " fill="#7367F0" transform="translate(468,751)"/>
<path d="M0 0 C2 1 2 1 2 1 Z " fill="#7367F0" transform="translate(456,743)"/>
<path d="M0 0 C2 1 2 1 2 1 Z " fill="#7367F0" transform="translate(434,740)"/>
<path d="M0 0 C2 1 2 1 2 1 Z " fill="#7367F0" transform="translate(394,720)"/>
<path d="M0 0 C2 1 2 1 2 1 Z " fill="#7367F0" transform="translate(387,717)"/>
<path d="M0 0 C2 1 2 1 2 1 Z " fill="#7367F0" transform="translate(359,701)"/>
<path d="" fill="#7367F0" transform="translate(0,0)"/>
<path d="M0 0 C2 1 2 1 2 1 Z " fill="#7367F0" transform="translate(294,667)"/>
<path d="M0 0 C2 1 2 1 2 1 Z " fill="#7367F0" transform="translate(284,659)"/>
<path d="" fill="#7367F0" transform="translate(0,0)"/>
<path d="" fill="#7367F0" transform="translate(0,0)"/>
<path d="M0 0 C2 1 2 1 2 1 Z " fill="#7367F0" transform="translate(203,609)"/>
<path d="M0 0 C2 1 2 1 2 1 Z " fill="#7367F0" transform="translate(195,601)"/>
<path d="M0 0 C2 1 2 1 2 1 Z " fill="#7367F0" transform="translate(168,593)"/>
<path d="M0 0 C2 1 2 1 2 1 Z " fill="#7367F0" transform="translate(163,593)"/>
<path d="" fill="#7367F0" transform="translate(0,0)"/>
<path d="M0 0 C2 1 2 1 2 1 Z " fill="#7367F0" transform="translate(114,586)"/>
<path d="" fill="#7367F0" transform="translate(0,0)"/>
<path d="M0 0 C2 1 2 1 2 1 Z " fill="#7367F0" transform="translate(134,580)"/>
<path d="M0 0 C2 1 2 1 2 1 Z " fill="#7367F0" transform="translate(132,578)"/>
<path d="" fill="#7367F0" transform="translate(0,0)"/>
<path d="M0 0 C2 1 2 1 2 1 Z " fill="#7367F0" transform="translate(123,569)"/>
<path d="" fill="#7367F0" transform="translate(0,0)"/>
<path d="" fill="#7367F0" transform="translate(0,0)"/>
<path d="" fill="#7367F0" transform="translate(0,0)"/>
<path d="" fill="#7367F0" transform="translate(0,0)"/>
<path d="" fill="#7367F0" transform="translate(0,0)"/>
<path d="" fill="#7367F0" transform="translate(0,0)"/>
<path d="" fill="#7367F0" transform="translate(0,0)"/>
<path d="" fill="#7367F0" transform="translate(0,0)"/>
<path d="" fill="#7367F0" transform="translate(0,0)"/>
<path d="" fill="#7367F0" transform="translate(0,0)"/>
<path d="" fill="#7367F0" transform="translate(0,0)"/>
<path d="" fill="#7367F0" transform="translate(0,0)"/>
<path d="" fill="#7367F0" transform="translate(0,0)"/>
<path d="" fill="#7367F0" transform="translate(0,0)"/>
<path d="" fill="#7367F0" transform="translate(0,0)"/>
<path d="" fill="#7367F0" transform="translate(0,0)"/>
<path d="" fill="#7367F0" transform="translate(0,0)"/>
<path d="" fill="#7367F0" transform="translate(0,0)"/>
<path d="" fill="#7367F0" transform="translate(0,0)"/>
<path d="" fill="#7367F0" transform="translate(0,0)"/>
<path d="" fill="#7367F0" transform="translate(0,0)"/>
<path d="" fill="#7367F0" transform="translate(0,0)"/>
<path d="" fill="#7367F0" transform="translate(0,0)"/>
<path d="" fill="#7367F0" transform="translate(0,0)"/>
<path d="" fill="#7367F0" transform="translate(0,0)"/>
<path d="" fill="#7367F0" transform="translate(0,0)"/>
<path d="" fill="#7367F0" transform="translate(0,0)"/>
<path d="" fill="#7367F0" transform="translate(0,0)"/>
<path d="" fill="#7367F0" transform="translate(0,0)"/>
<path d="" fill="#7367F0" transform="translate(0,0)"/>
<path d="" fill="#7367F0" transform="translate(0,0)"/>
<path d="" fill="#7367F0" transform="translate(0,0)"/>
<path d="" fill="#7367F0" transform="translate(0,0)"/>
<path d="" fill="#7367F0" transform="translate(0,0)"/>
<path d="" fill="#7367F0" transform="translate(0,0)"/>
<path d="" fill="#7367F0" transform="translate(0,0)"/>
<path d="" fill="#7367F0" transform="translate(0,0)"/>
<path d="" fill="#7367F0" transform="translate(0,0)"/>
<path d="" fill="#7367F0" transform="translate(0,0)"/>
<path d="" fill="#7367F0" transform="translate(0,0)"/>
<path d="" fill="#7367F0" transform="translate(0,0)"/>
<path d="" fill="#7367F0" transform="translate(0,0)"/>
<path d="" fill="#7367F0" transform="translate(0,0)"/>
<path d="" fill="#7367F0" transform="translate(0,0)"/>
<path d="" fill="#7367F0" transform="translate(0,0)"/>
<path d="" fill="#7367F0" transform="translate(0,0)"/>
<path d="" fill="#7367F0" transform="translate(0,0)"/>
<path d="" fill="#7367F0" transform="translate(0,0)"/>
<path d="" fill="#7367F0" transform="translate(0,0)"/>
<path d="" fill="#7367F0" transform="translate(0,0)"/>
<path d="" fill="#7367F0" transform="translate(0,0)"/>
<path d="" fill="#7367F0" transform="translate(0,0)"/>
<path d="" fill="#7367F0" transform="translate(0,0)"/>
<path d="" fill="#7367F0" transform="translate(0,0)"/>
<path d="" fill="#7367F0" transform="translate(0,0)"/>
<path d="" fill="#7367F0" transform="translate(0,0)"/>
<path d="" fill="#7367F0" transform="translate(0,0)"/>
<path d="" fill="#7367F0" transform="translate(0,0)"/>
<path d="" fill="#7367F0" transform="translate(0,0)"/>
<path d="" fill="#7367F0" transform="translate(0,0)"/>
<path d="" fill="#7367F0" transform="translate(0,0)"/>
<path d="" fill="#7367F0" transform="translate(0,0)"/>
<path d="" fill="#7367F0" transform="translate(0,0)"/>
<path d="" fill="#7367F0" transform="translate(0,0)"/>
<path d="" fill="#7367F0" transform="translate(0,0)"/>
<path d="" fill="#7367F0" transform="translate(0,0)"/>
<path d="" fill="#7367F0" transform="translate(0,0)"/>
<path d="" fill="#7367F0" transform="translate(0,0)"/>
<path d="" fill="#7367F0" transform="translate(0,0)"/>
<path d="" fill="#7367F0" transform="translate(0,0)"/>
<path d="" fill="#7367F0" transform="translate(0,0)"/>
<path d="" fill="#7367F0" transform="translate(0,0)"/>
<path d="" fill="#7367F0" transform="translate(0,0)"/>
<path d="" fill="#7367F0" transform="translate(0,0)"/>
<path d="" fill="#7367F0" transform="translate(0,0)"/>
<path d="" fill="#7367F0" transform="translate(0,0)"/>
<path d="" fill="#7367F0" transform="translate(0,0)"/>
<path d="" fill="#7367F0" transform="translate(0,0)"/>
<path d="" fill="#7367F0" transform="translate(0,0)"/>
<path d="" fill="#7367F0" transform="translate(0,0)"/>
<path d="" fill="#7367F0" transform="translate(0,0)"/>
<path d="" fill="#7367F0" transform="translate(0,0)"/>
<path d="" fill="#7367F0" transform="translate(0,0)"/>
<path d="" fill="#7367F0" transform="translate(0,0)"/>
<path d="" fill="#7367F0" transform="translate(0,0)"/>
<path d="" fill="#7367F0" transform="translate(0,0)"/>
<path d="" fill="#7367F0" transform="translate(0,0)"/>
<path d="" fill="#7367F0" transform="translate(0,0)"/>
<path d="" fill="#7367F0" transform="translate(0,0)"/>
<path d="" fill="#7367F0" transform="translate(0,0)"/>
<path d="" fill="#7367F0" transform="translate(0,0)"/>
<path d="" fill="#7367F0" transform="translate(0,0)"/>
<path d="" fill="#7367F0" transform="translate(0,0)"/>
<path d="" fill="#7367F0" transform="translate(0,0)"/>
<path d="" fill="#7367F0" transform="translate(0,0)"/>
<path d="" fill="#7367F0" transform="translate(0,0)"/>
<path d="" fill="#7367F0" transform="translate(0,0)"/>
<path d="" fill="#7367F0" transform="translate(0,0)"/>
<path d="" fill="#7367F0" transform="translate(0,0)"/>
<path d="" fill="#7367F0" transform="translate(0,0)"/>
<path d="" fill="#7367F0" transform="translate(0,0)"/>
<path d="" fill="#7367F0" transform="translate(0,0)"/>
<path d="" fill="#7367F0" transform="translate(0,0)"/>
<path d="" fill="#7367F0" transform="translate(0,0)"/>
<path d="" fill="#7367F0" transform="translate(0,0)"/>
<path d="" fill="#7367F0" transform="translate(0,0)"/>
<path d="" fill="#7367F0" transform="translate(0,0)"/>
<path d="" fill="#7367F0" transform="translate(0,0)"/>
<path d="" fill="#7367F0" transform="translate(0,0)"/>
<path d="" fill="#7367F0" transform="translate(0,0)"/>
<path d="" fill="#7367F0" transform="translate(0,0)"/>
<path d="" fill="#7367F0" transform="translate(0,0)"/>
<path d="" fill="#7367F0" transform="translate(0,0)"/>
<path d="" fill="#7367F0" transform="translate(0,0)"/>
<path d="" fill="#7367F0" transform="translate(0,0)"/>
<path d="" fill="#7367F0" transform="translate(0,0)"/>
<path d="" fill="#7367F0" transform="translate(0,0)"/>
<path d="" fill="#7367F0" transform="translate(0,0)"/>
<path d="" fill="#7367F0" transform="translate(0,0)"/>
<path d="" fill="#7367F0" transform="translate(0,0)"/>
<path d="" fill="#7367F0" transform="translate(0,0)"/>
<path d="" fill="#7367F0" transform="translate(0,0)"/>
<path d="" fill="#7367F0" transform="translate(0,0)"/>
<path d="" fill="#7367F0" transform="translate(0,0)"/>
<path d="" fill="#7367F0" transform="translate(0,0)"/>
<path d="" fill="#7367F0" transform="translate(0,0)"/>
<path d="" fill="#7367F0" transform="translate(0,0)"/>
<path d="" fill="#7367F0" transform="translate(0,0)"/>
<path d="" fill="#7367F0" transform="translate(0,0)"/>
<path d="" fill="#7367F0" transform="translate(0,0)"/>
<path d="" fill="#7367F0" transform="translate(0,0)"/>
<path d="" fill="#7367F0" transform="translate(0,0)"/>
<path d="" fill="#7367F0" transform="translate(0,0)"/>
<path d="" fill="#7367F0" transform="translate(0,0)"/>
<path d="" fill="#7367F0" transform="translate(0,0)"/>
<path d="" fill="#7367F0" transform="translate(0,0)"/>
<path d="" fill="#7367F0" transform="translate(0,0)"/>
<path d="" fill="#7367F0" transform="translate(0,0)"/>
<path d="" fill="#7367F0" transform="translate(0,0)"/>
<path d="" fill="#7367F0" transform="translate(0,0)"/>
<path d="" fill="#7367F0" transform="translate(0,0)"/>
<path d="" fill="#7367F0" transform="translate(0,0)"/>
<path d="" fill="#7367F0" transform="translate(0,0)"/>
<path d="" fill="#7367F0" transform="translate(0,0)"/>
<path d="" fill="#7367F0" transform="translate(0,0)"/>
<path d="" fill="#7367F0" transform="translate(0,0)"/>
<path d="" fill="#7367F0" transform="translate(0,0)"/>
<path d="" fill="#7367F0" transform="translate(0,0)"/>
<path d="" fill="#7367F0" transform="translate(0,0)"/>
<path d="" fill="#7367F0" transform="translate(0,0)"/>
<path d="" fill="#7367F0" transform="translate(0,0)"/>
<path d="" fill="#7367F0" transform="translate(0,0)"/>
<path d="" fill="#7367F0" transform="translate(0,0)"/>
<path d="" fill="#7367F0" transform="translate(0,0)"/>
<path d="" fill="#7367F0" transform="translate(0,0)"/>
<path d="" fill="#7367F0" transform="translate(0,0)"/>
<path d="" fill="#7367F0" transform="translate(0,0)"/>
<path d="" fill="#7367F0" transform="translate(0,0)"/>
</svg>
